<?xml version="1.0" encoding="UTF-8" standalone="no"?>
<!-- Generator: Adobe Illustrator 18.1.1, SVG Export Plug-In . SVG Version: 6.00 Build 0)  -->

<svg
   xmlns:dc="http://purl.org/dc/elements/1.1/"
   xmlns:cc="http://creativecommons.org/ns#"
   xmlns:rdf="http://www.w3.org/1999/02/22-rdf-syntax-ns#"
   xmlns:svg="http://www.w3.org/2000/svg"
   xmlns="http://www.w3.org/2000/svg"
   xmlns:sodipodi="http://sodipodi.sourceforge.net/DTD/sodipodi-0.dtd"
   xmlns:inkscape="http://www.inkscape.org/namespaces/inkscape"
   version="1.1"
   id="Capa_1"
   x="0px"
   y="0px"
   viewBox="0 0 492.073 492.073"
   style="enable-background:new 0 0 492.073 492.073;"
   xml:space="preserve"
   sodipodi:docname="scalajs-reaction-logo.svg"
   inkscape:version="0.92.4 (unknown)"><metadata
   id="metadata4121"><rdf:RDF><cc:Work
       rdf:about=""><dc:format>image/svg+xml</dc:format><dc:type
         rdf:resource="http://purl.org/dc/dcmitype/StillImage" /><dc:title></dc:title></cc:Work></rdf:RDF></metadata><defs
   id="defs4119"><linearGradient
     id="path3043_1_"
     gradientUnits="userSpaceOnUse"
     x1="30.7339"
     y1="692.75519"
     x2="340.57251"
     y2="692.75519"
     gradientTransform="matrix(1.0501,0,0,1.1201,317.15,-290.4122)"><stop
       offset="0"
       style="stop-color:#646464"
       id="stop3843" /><stop
       offset="1"
       style="stop-color:#000000"
       id="stop3845" /></linearGradient><linearGradient
     id="path3041_1_"
     gradientUnits="userSpaceOnUse"
     x1="30.7339"
     y1="698.11511"
     x2="340.57251"
     y2="698.11511"
     gradientTransform="matrix(1.0501,0,0,1.1201,317.15,-463.9336)"><stop
       offset="0"
       style="stop-color:#646464"
       id="stop3849" /><stop
       offset="1"
       style="stop-color:#000000"
       id="stop3851" /></linearGradient><linearGradient
     id="path3041-7_1_"
     gradientUnits="userSpaceOnUse"
     x1="29.630301"
     y1="663.39362"
     x2="339.46899"
     y2="663.39362"
     gradientTransform="matrix(1.0501,0,0,1.1201,318.7462,-462.3903)"><stop
       offset="0"
       style="stop-color:#4B4B4B"
       id="stop3856" /><stop
       offset="1"
       style="stop-color:#000000"
       id="stop3858" /></linearGradient><linearGradient
     id="path3043-4_1_"
     gradientUnits="userSpaceOnUse"
     x1="29.630301"
     y1="660.99512"
     x2="339.46899"
     y2="660.99512"
     gradientTransform="matrix(1.0501,0,0,1.1201,318.7462,-288.8688)"><stop
       offset="0"
       style="stop-color:#4B4B4B"
       id="stop3862" /><stop
       offset="1"
       style="stop-color:#000000"
       id="stop3864" /></linearGradient><linearGradient
     id="path3047_1_"
     gradientUnits="userSpaceOnUse"
     x1="30.7339"
     y1="665.16333"
     x2="340.57251"
     y2="665.16333"
     gradientTransform="matrix(1.0501,0,0,-1.1201,317.15,954.3288)"><stop
       offset="0"
       style="stop-color:#A00000"
       id="stop3870" /><stop
       offset="1"
       style="stop-color:#FF0000"
       id="stop3872" /></linearGradient><linearGradient
     id="path3049_1_"
     gradientUnits="userSpaceOnUse"
     x1="30.7339"
     y1="504.70041"
     x2="340.57251"
     y2="504.70041"
     gradientTransform="matrix(1.0501,0,0,-1.1201,317.15,954.3288)"><stop
       offset="0"
       style="stop-color:#A00000"
       id="stop3876" /><stop
       offset="1"
       style="stop-color:#FF0000"
       id="stop3878" /></linearGradient><linearGradient
     id="path3051_1_"
     gradientUnits="userSpaceOnUse"
     x1="30.7339"
     y1="363.19821"
     x2="340.57251"
     y2="363.19821"
     gradientTransform="matrix(1.0501,0,0,-1.1201,317.15,954.3288)"><stop
       offset="0"
       style="stop-color:#A00000"
       id="stop3882" /><stop
       offset="1"
       style="stop-color:#FF0000"
       id="stop3884" /></linearGradient><linearGradient
     id="path3047-7_1_"
     gradientUnits="userSpaceOnUse"
     x1="29.630301"
     y1="627.97693"
     x2="339.46899"
     y2="627.97693"
     gradientTransform="matrix(1.0501,0,0,-1.1201,318.7462,953.5922)"><stop
       offset="0"
       style="stop-color:#780000"
       id="stop3889" /><stop
       offset="1"
       style="stop-color:#C00000"
       id="stop3891" /></linearGradient><linearGradient
     id="path3049-7_1_"
     gradientUnits="userSpaceOnUse"
     x1="29.630301"
     y1="468.14319"
     x2="339.46899"
     y2="468.14319"
     gradientTransform="matrix(1.0501,0,0,-1.1201,318.7462,953.5922)"><stop
       offset="0"
       style="stop-color:#780000"
       id="stop3895" /><stop
       offset="1"
       style="stop-color:#C00000"
       id="stop3897" /></linearGradient><linearGradient
     id="path3051-9_1_"
     gradientUnits="userSpaceOnUse"
     x1="29.630301"
     y1="329.76089"
     x2="339.46899"
     y2="329.76089"
     gradientTransform="matrix(1.0501,0,0,-1.1201,318.7462,953.5922)"><stop
       offset="0"
       style="stop-color:#780000"
       id="stop3901" /><stop
       offset="1"
       style="stop-color:#C00000"
       id="stop3903" /></linearGradient></defs><sodipodi:namedview
   pagecolor="#ffffff"
   bordercolor="#666666"
   borderopacity="1"
   objecttolerance="10"
   gridtolerance="10"
   guidetolerance="10"
   inkscape:pageopacity="0"
   inkscape:pageshadow="2"
   inkscape:window-width="852"
   inkscape:window-height="727"
   id="namedview4117"
   showgrid="false"
   inkscape:zoom="0.47960364"
   inkscape:cx="246.0365"
   inkscape:cy="246.0365"
   inkscape:window-x="442"
   inkscape:window-y="932"
   inkscape:window-maximized="0"
   inkscape:current-layer="g5009" />
<g
   id="g4084">
	<g
   id="g4082">
		<g
   id="g4080">
			<path
   style="fill:#010002;"
   d="M371.574,225.564c-38.333,6.333-69.167,13.333-92.503,21c-23.332,7.668-44.833,16.668-64.5,27     c-19.666,10.334-32.333,17.668-38,22c-5.666,4.334-9.833,7.5-12.5,9.5l-3,4c0,2,1,3.668,3,5l85,40c3.334,1.334,5,3.666,5,7     c0,6-2.666,9-8,9l-94-1c-2,0-3,1.334-3,4l2,2c83.333,66,197.001,98,341.001,96h0.001v-254     C450.074,216.397,409.908,219.231,371.574,225.564z M303.072,322.064c-4,4-8.668,6-14,6c-5.334,0-10-2-14-6s-6-8.666-6-14     c0-5.332,2-10,6-14s8.67-6,14-6c5.332,0,10,2,14,6c4.001,4,6.001,8.668,6.001,14     C309.072,313.398,307.072,318.064,303.072,322.064z"
   id="path4076" />
			<path
   style="fill:#010002;"
   d="M207.071,161.064c6,0,11.333-2.167,16-6.5s7-9.833,7-16.5c-0.667-2-1-3.667-1-5     c76.667-62.667,148.334-94.333,215.001-95c11.332,0,26,2,44,6l4,1v-19h-3c-17.331-4-32.668-5.667-46-5     c-72,0.667-147.669,33-227.001,97l-9-3c-6.667,0-12.333,2.333-17,7s-7,10-7,16c0.667,3.333,1.334,5.667,2,7l-66,61l-55,51     c-5.333,5.334-11.667,7.834-19,7.5c-7.333-0.332-13.333-3.166-18-8.5c-4.667-5.332-7-11.333-7-18c0-7.333,2.667-13.667,8-19     c3.333-1.333,6-2.667,8-4l2,19l46-57l-50,17c-9.333,2.669-15.667,6.335-19,11c-9.333,8-14.333,18.333-15,31s3.333,23.667,12,33     c8.667,9.334,19.333,14.168,32,14.5c12.667,0.334,23.667-3.5,33-11.5l1-1l52-49c43.333-40.667,65.667-61.667,67-63     L207.071,161.064z"
   id="path4078" />
		</g>
	</g>
</g>
<g
   id="g4086">
</g>
<g
   id="g4088">
</g>
<g
   id="g4090">
</g>
<g
   id="g4092">
</g>
<g
   id="g4094">
</g>
<g
   id="g4096">
</g>
<g
   id="g4098">
</g>
<g
   id="g4100">
</g>
<g
   id="g4102">
</g>
<g
   id="g4104">
</g>
<g
   id="g4106">
</g>
<g
   id="g4108">
</g>
<g
   id="g4110">
</g>
<g
   id="g4112">
</g>
<g
   id="g4114">
</g>
<g
   transform="matrix(6.0808142,0,0,5.7739336,85.487259,126.14583)"
   style="fill:none;stroke:#61dafb;stroke-width:1"
   id="g3981"><ellipse
     cy="0"
     cx="0"
     rx="11"
     ry="4.1999998"
     id="ellipse3975" /><ellipse
     cy="0"
     cx="0"
     rx="11"
     ry="4.1999998"
     transform="rotate(60)"
     id="ellipse3977" /><ellipse
     cy="0"
     cx="0"
     rx="11"
     ry="4.1999998"
     transform="rotate(120)"
     id="ellipse3979" /></g><style
   id="style4869"
   type="text/css">
	.st0{fill:#D6BA32;}
	.st1{fill:#FFDA3E;}
	.st2{fill:url(#path3043_1_);}
	.st3{fill:url(#path3041_1_);}
	.st4{fill:url(#path3041-7_1_);}
	.st5{fill:url(#path3043-4_1_);}
	.st6{fill:url(#path3047_1_);}
	.st7{fill:url(#path3049_1_);}
	.st8{fill:url(#path3051_1_);}
	.st9{fill:url(#path3047-7_1_);}
	.st10{fill:url(#path3049-7_1_);}
	.st11{fill:url(#path3051-9_1_);}
</style><g
   id="g5009"
   transform="matrix(0.15584815,0,0,0.15934422,223.03563,243.38723)"><g
     id="g4878"
     transform="matrix(0.55258357,0,0,0.55864328,149.5768,154.60295)">
	<polyline
   id="polyline4874"
   points="249.2,674.5 190.9,19.4 833.1,19.4 774.8,674.5 511.3,748.6  "
   class="st0"
   style="fill:#d6ba32" />
	<polygon
   id="polygon4876"
   points="774.8,77 512.7,77 512.7,696.5 724.9,638.1 "
   class="st1"
   style="fill:#ffda3e" />
</g><g
     transform="matrix(0.55258357,0,0,0.55864328,149.71495,154.23189)"
     id="g3886">
	
		<linearGradient
   gradientTransform="matrix(1.0501,0,0,1.1201,317.15,-290.4122)"
   y2="692.75519"
   x2="340.57251"
   y1="692.75519"
   x1="30.7339"
   gradientUnits="userSpaceOnUse"
   id="linearGradient4956">
		<stop
   id="stop4880"
   style="stop-color:#646464"
   offset="0" />
		<stop
   id="stop4882"
   style="stop-color:#000000"
   offset="1" />
	</linearGradient>
	<path
   d="m 511.9,411.8 v 124.1 c 74.9,-2.5 144.2,0.9 142.9,23.4 L 661.1,448 c 0,0 1.8,-31 -149.2,-36.2 v 0"
   class="st2"
   inkscape:connector-curvature="0"
   id="path3043"
   style="fill:url(#path3043_1_)" />
	
		<linearGradient
   gradientTransform="matrix(1.0501,0,0,1.1201,317.15,-463.9336)"
   y2="698.11511"
   x2="340.57251"
   y1="698.11511"
   x1="30.7339"
   gradientUnits="userSpaceOnUse"
   id="linearGradient4961">
		<stop
   id="stop4886"
   style="stop-color:#646464"
   offset="0" />
		<stop
   id="stop4888"
   style="stop-color:#000000"
   offset="1" />
	</linearGradient>
	<path
   d="m 511.9,227.3 v 141.4 c 79.6,4.3 152.9,14.6 151.5,39.9 l 7.1,-125.4 c 0,0.1 2,-35 -158.6,-55.9 v 0"
   class="st3"
   inkscape:connector-curvature="0"
   id="path3041"
   style="fill:url(#path3041_1_)" />
</g><g
     transform="matrix(0.55258357,0,0,0.55864328,150.32476,154.80045)"
     id="g4325">
	
		<linearGradient
   gradientTransform="matrix(1.0501,0,0,1.1201,318.7462,-462.3903)"
   y2="663.39362"
   x2="339.46899"
   y1="663.39362"
   x1="29.630301"
   gradientUnits="userSpaceOnUse"
   id="linearGradient4967">
		<stop
   id="stop4893"
   style="stop-color:#4B4B4B"
   offset="0" />
		<stop
   id="stop4895"
   style="stop-color:#000000"
   offset="1" />
	</linearGradient>
	<path
   d="m 347.4,192.6 7.5,133 c 0,0 76.4,17.5 157.4,43.1 v -141 C 467.4,215.8 412.9,203.8 347.4,192.6 v 0"
   class="st4"
   inkscape:connector-curvature="0"
   id="path3041-7"
   style="fill:url(#path3041-7_1_)" />
	
		<linearGradient
   gradientTransform="matrix(1.0501,0,0,1.1201,318.7462,-288.8688)"
   y2="660.99512"
   x2="339.46899"
   y1="660.99512"
   x1="29.630301"
   gradientUnits="userSpaceOnUse"
   id="linearGradient4972">
		<stop
   id="stop4899"
   style="stop-color:#4B4B4B"
   offset="0" />
		<stop
   id="stop4901"
   style="stop-color:#000000"
   offset="1" />
	</linearGradient>
	<path
   d="m 357.2,367.3 6.6,118 c 0,0 72.2,21.4 148.4,50.4 V 411.6 c -42,-14.1 -93.2,-29.1 -155,-44.3 v 0"
   class="st5"
   inkscape:connector-curvature="0"
   id="path3043-4"
   style="fill:url(#path3043-4_1_)" />
</g><g
     inkscape:label="JS logo"
     id="layer1">
</g><g
     transform="matrix(0.55258357,0,0,0.55864328,149.71495,154.23189)"
     id="g3890">
	
		<linearGradient
   gradientTransform="matrix(1.0501,0,0,-1.1201,317.15,954.3288)"
   y2="665.16333"
   x2="340.57251"
   y1="665.16333"
   x1="30.7339"
   gradientUnits="userSpaceOnUse"
   id="linearGradient4979">
		<stop
   id="stop4907"
   style="stop-color:#A00000"
   offset="0" />
		<stop
   id="stop4909"
   style="stop-color:#FF0000"
   offset="1" />
	</linearGradient>
	<path
   d="m 681.1,96.6 c -1.8,31 -83.2,58.1 -169.2,78.8 V 321.9 C 671,274.2 673,238.9 673,238.9 l 8.1,-142.3 v 0"
   class="st6"
   inkscape:connector-curvature="0"
   id="path3047"
   style="fill:url(#path3047_1_)" />
	
		<linearGradient
   gradientTransform="matrix(1.0501,0,0,-1.1201,317.15,954.3288)"
   y2="504.70041"
   x2="340.57251"
   y1="504.70041"
   x1="30.7339"
   gradientUnits="userSpaceOnUse"
   id="linearGradient4984">
		<stop
   id="stop4913"
   style="stop-color:#A00000"
   offset="0" />
		<stop
   id="stop4915"
   style="stop-color:#FF0000"
   offset="1" />
	</linearGradient>
	<path
   d="m 670.5,283.3 c -1.5,27.2 -78,57.8 -158.6,83.1 v 128.3 c 149.7,-54.8 151.5,-86 151.5,-86 l 7.1,-125.4 v 0"
   class="st7"
   inkscape:connector-curvature="0"
   id="path3049"
   style="fill:url(#path3049_1_)" />
	
		<linearGradient
   gradientTransform="matrix(1.0501,0,0,-1.1201,317.15,954.3288)"
   y2="363.19821"
   x2="340.57251"
   y1="363.19821"
   x1="30.7339"
   gradientUnits="userSpaceOnUse"
   id="linearGradient4989">
		<stop
   id="stop4919"
   style="stop-color:#A00000"
   offset="0" />
		<stop
   id="stop4921"
   style="stop-color:#FF0000"
   offset="1" />
	</linearGradient>
	<path
   d="m 661.1,448 c -1.4,24.1 -73.5,57.2 -149.2,85.8 V 647 C 653.2,587 654.8,559.2 654.8,559.2 L 661.1,448 v 0"
   class="st8"
   inkscape:connector-curvature="0"
   id="path3051"
   style="fill:url(#path3051_1_)" />
</g><g
     transform="matrix(0.55258357,0,0,0.55864328,150.32476,154.80045)"
     id="g4329">
	
		<linearGradient
   gradientTransform="matrix(1.0501,0,0,-1.1201,318.7462,953.5922)"
   y2="627.97693"
   x2="339.46899"
   y1="627.97693"
   x1="29.630301"
   gradientUnits="userSpaceOnUse"
   id="linearGradient4995">
		<stop
   id="stop4926"
   style="stop-color:#780000"
   offset="0" />
		<stop
   id="stop4928"
   style="stop-color:#C00000"
   offset="1" />
	</linearGradient>
	<path
   d="m 512.2,174.7 c -85.5,13.2 -164.8,18 -164.8,18 l 7.5,133 c 62.2,0.6 114.2,-1.3 157.4,-4.9 V 174.7 h -0.1"
   class="st9"
   inkscape:connector-curvature="0"
   id="path3047-7"
   style="fill:url(#path3047-7_1_)" />
	
		<linearGradient
   gradientTransform="matrix(1.0501,0,0,-1.1201,318.7462,953.5922)"
   y2="468.14319"
   x2="339.46899"
   y1="468.14319"
   x1="29.630301"
   gradientUnits="userSpaceOnUse"
   id="linearGradient5000">
		<stop
   id="stop4932"
   style="stop-color:#780000"
   offset="0" />
		<stop
   id="stop4934"
   style="stop-color:#C00000"
   offset="1" />
	</linearGradient>
	<path
   d="m 512.2,365.1 c -80.2,4.6 -155,2.2 -155,2.2 l 6.6,118 c 58.8,5.5 107.8,7.8 148.4,8.1 v -128.3 0"
   class="st10"
   inkscape:connector-curvature="0"
   id="path3049-7"
   style="fill:url(#path3049-7_1_)" />
	
		<linearGradient
   gradientTransform="matrix(1.0501,0,0,-1.1201,318.7462,953.5922)"
   y2="329.76089"
   x2="339.46899"
   y1="329.76089"
   x1="29.630301"
   gradientUnits="userSpaceOnUse"
   id="linearGradient5005">
		<stop
   id="stop4938"
   style="stop-color:#780000"
   offset="0" />
		<stop
   id="stop4940"
   style="stop-color:#C00000"
   offset="1" />
	</linearGradient>
	<path
   d="M 512.2,532.5 C 436.6,530.3 365.9,522.4 365.9,522.4 l 5.9,105.4 c 55.8,9.3 102.1,15 140.4,18.3 v -113.6 0"
   class="st11"
   inkscape:connector-curvature="0"
   id="path3051-9"
   style="fill:url(#path3051-9_1_)" />
</g></g></svg>